<?xml version="1.0" encoding="iso-8859-1"?>

<!DOCTYPE svg PUBLIC "-//W3C//DTD SVG 1.1//EN" "http://www.w3.org/Graphics/SVG/1.1/DTD/svg11.dtd">
<!-- Uploaded to: SVG Repo, www.svgrepo.com, Generator: SVG Repo Mixer Tools -->
<svg version="1.1" id="_x35_" xmlns="http://www.w3.org/2000/svg" xmlns:xlink="http://www.w3.org/1999/xlink" 
	 viewBox="0 0 512 512"  xml:space="preserve">
<g>
	<g>
		<rect x="25.613" y="14.338" style="fill:#F2F2F2;" width="450.316" height="497.662"/>
		<rect x="25.613" y="0.014" style="fill:#FFFFFF;" width="450.316" height="430.489"/>
		<rect x="55.875" y="465.768" style="fill:#962538;" width="389.792" height="28.629"/>
		<rect x="55.875" y="481.184" style="fill:#D9E47C;" width="389.792" height="5.506"/>
		<rect x="71.291" y="102.403" style="fill:#F2F2F2;" width="358.961" height="146.447"/>
		<rect x="115.86" y="0.014" style="fill:#F2F2F2;" width="269.823" height="71.548"/>
		<rect x="196.817" y="259.311" style="fill:#F2F2F2;" width="107.908" height="146.447"/>
		<rect x="246.074" y="259.311" style="fill:#B5B5B5;" width="9.394" height="81.207"/>
		<g>
			<rect x="63.032" y="332.534" style="fill:#F2F2F2;" width="107.909" height="73.224"/>
			<rect x="330.602" y="332.534" style="fill:#F2F2F2;" width="107.909" height="73.224"/>
		</g>
		<rect x="71.291" y="118.92" style="fill:#962538;" width="358.961" height="101.852"/>
		<g>
			<rect x="196.817" y="334.324" style="fill:#7E2639;" width="107.908" height="50.789"/>
			<rect x="196.817" y="321.936" style="fill:#962538;" width="107.908" height="50.789"/>
			<rect x="196.817" y="337.627" style="fill:#AB4A50;" width="107.908" height="5.368"/>
		</g>
		<rect x="71.291" y="109.01" style="fill:#AB4A50;" width="358.961" height="19.269"/>
		<g>
			<g>
				<path style="fill:#962538;" d="M45.159,93.295v241.74c0,5.433-1.976,10.372-5.433,14.112c-2.752,3.105-6.351,5.362-10.513,6.421
					c-1.129,0.282-2.399,0.494-3.599,0.565c-0.565,0.071-1.059,0.071-1.623,0.071h-2.823C9.455,356.203,0,346.748,0,335.035V93.295
					c0-11.713,9.455-21.168,21.168-21.168h2.823c0.564,0,1.058,0,1.623,0.071c1.199,0.07,2.469,0.282,3.599,0.564
					c4.163,1.059,7.761,3.316,10.513,6.421C43.183,82.923,45.159,87.862,45.159,93.295z"/>
				<path style="fill:#AB4A50;" d="M25.287,349.447V78.883c0-3.734,3.027-6.761,6.761-6.761h0.894c3.734,0,6.761,3.027,6.761,6.761
					v270.564c0,3.734-3.027,6.761-6.761,6.761h-0.894C28.314,356.208,25.287,353.181,25.287,349.447z"/>
			</g>
			<g>
				<path style="fill:#962538;" d="M501.546,335.032V93.299c0-11.696-9.481-21.177-21.177-21.177h-2.8
					c-11.695,0-21.177,9.481-21.177,21.177v241.733c0,11.696,9.481,21.177,21.177,21.177h2.8
					C492.064,356.208,501.546,346.727,501.546,335.032z"/>
				<path style="fill:#AB4A50;" d="M476.255,349.447V78.883c0-3.734-3.027-6.761-6.761-6.761H468.6
					c-3.734,0-6.761,3.027-6.761,6.761v270.564c0,3.734,3.027,6.761,6.761,6.761h0.894
					C473.228,356.208,476.255,353.181,476.255,349.447z"/>
			</g>
		</g>
		<g>
			<rect x="340.099" y="344.647" style="fill:#962538;" width="52.027" height="52.027"/>
			<g>
				<rect x="109.417" y="344.647" style="fill:#7E2639;" width="52.027" height="52.027"/>
				<rect x="109.417" y="358.135" style="opacity:0.5;fill:#962538;" width="52.027" height="23.949"/>
				<rect x="109.417" y="364.742" style="fill:#7E2639;" width="52.027" height="5.643"/>
			</g>
		</g>
		<g>
			<rect x="133.09" style="fill:#828282;" width="14.039" height="44.829"/>
			<rect x="169.988" style="fill:#828282;" width="14.039" height="44.829"/>
			<rect x="206.883" y="0.014" style="fill:#828282;" width="14.042" height="44.806"/>
			<rect x="243.786" y="0.014" style="fill:#828282;" width="13.971" height="44.806"/>
			<rect x="280.619" y="0.014" style="fill:#828282;" width="14.041" height="44.806"/>
			<rect x="317.522" y="0.014" style="fill:#828282;" width="14.041" height="44.806"/>
			<rect x="354.424" y="0.014" style="fill:#828282;" width="14.041" height="44.806"/>
		</g>
	</g>
	<path style="opacity:0.04;fill:#040000;" d="M501.543,93.295v241.74c0,11.713-9.455,21.168-21.168,21.168h-2.823
		c-0.282,0-0.565-0.071-0.776-0.071c-0.283,0-0.565-0.071-0.847-0.071V512H25.613v-30.835L475.929,30.849v41.419
		c0.282,0,0.564-0.07,0.847-0.07c0.211,0,0.494-0.071,0.776-0.071h2.823C492.088,72.127,501.543,81.582,501.543,93.295z"/>
</g>
</svg>